<svg xmlns="http://www.w3.org/2000/svg" width="225.167" height="62.167">
    <path fill="#FFF" d="M152.388 10.924h17.352v9.573h-17.352zM173.375 8.572h17.352v11.925h-17.352zM193.814 6.67h17.352v13.827h-17.352zM109.554 15.437h17.35v5.06h-17.35zM131.158 12.702h17.35v7.795h-17.35z"/>
    <path d="M0 27.738h20.192v3.08h-8.426v21.126H8.288V30.818H0v-3.08zM33.73 27.427c3.735 0 6.844 1.184 9.33 3.548 2.483 2.364 3.726 5.33 3.726 8.892 0 3.566-1.254 6.516-3.76 8.852-2.508 2.335-5.67 3.507-9.484 3.507-3.643 0-6.678-1.172-9.104-3.508-2.427-2.337-3.64-5.265-3.64-8.78 0-3.605 1.222-6.6 3.665-8.96 2.443-2.37 5.532-3.553 9.267-3.553zm.138 3.287c-2.766 0-5.04.865-6.82 2.596-1.78 1.73-2.67 3.938-2.67 6.625 0 2.61.893 4.775 2.68 6.506 1.786 1.73 4.02 2.6 6.706 2.6 2.697 0 4.946-.882 6.75-2.647 1.804-1.767 2.706-3.965 2.706-6.597 0-2.562-.9-4.713-2.706-6.46-1.805-1.75-4.018-2.622-6.646-2.622zM70.972 27.772h3.236v24.172H70.73V33.138l-7.432 9.344h-.64l-7.518-9.344v18.807h-3.46V27.772h3.276l8.03 9.927 7.986-9.928zM86.112 41.816l-2.63-1.596c-1.65-1.01-2.823-2-3.52-2.973-.7-.98-1.048-2.102-1.048-3.365 0-1.906.66-3.45 1.98-4.638 1.32-1.188 3.037-1.783 5.148-1.783 2.018 0 3.87.567 5.554 1.7v3.93c-1.742-1.676-3.616-2.514-5.624-2.514-1.13 0-2.06.26-2.786.784-.727.522-1.09 1.192-1.09 2.01 0 .724.268 1.4.803 2.03.535.635 1.395 1.296 2.58 1.99l2.645 1.564c2.948 1.762 4.422 4.002 4.422 6.723 0 1.94-.648 3.517-1.947 4.726-1.296 1.214-2.984 1.818-5.06 1.818-2.39 0-4.563-.735-6.524-2.202v-4.396c1.87 2.37 4.03 3.553 6.488 3.553 1.084 0 1.987-.303 2.708-.907.72-.6 1.082-1.356 1.082-2.267.002-1.467-1.06-2.862-3.182-4.184zM103.92 27.772h3.46v24.172h-3.46V27.772zM132.662 27.772h3.285v24.172h-2.976l-16.158-18.616v18.616h-3.253V27.772h2.8l16.302 18.774V27.772zM162.662 46.34v3.806c-2.537 1.385-5.467 2.076-8.79 2.076-2.698 0-4.987-.543-6.866-1.63-1.883-1.08-3.37-2.573-4.467-4.48-1.096-1.9-1.645-3.962-1.645-6.177 0-3.518 1.255-6.477 3.763-8.875 2.51-2.398 5.604-3.6 9.283-3.6 2.538 0 5.358.665 8.462 1.99v3.72c-2.824-1.614-5.588-2.422-8.287-2.422-2.77 0-5.066.875-6.896 2.623-1.826 1.747-2.74 3.94-2.74 6.564 0 2.655.896 4.834 2.696 6.543 1.803 1.705 4.104 2.562 6.904 2.562 2.93 0 5.79-.902 8.582-2.7zM179.49 27.427c3.734 0 6.844 1.184 9.328 3.548s3.727 5.33 3.727 8.892c0 3.566-1.252 6.516-3.762 8.852-2.508 2.335-5.668 3.507-9.482 3.507-3.642 0-6.677-1.172-9.103-3.508s-3.64-5.265-3.64-8.78c0-3.605 1.224-6.6 3.667-8.96 2.442-2.37 5.53-3.553 9.266-3.553zm.136 3.287c-2.768 0-5.037.865-6.818 2.596-1.78 1.73-2.672 3.938-2.672 6.625 0 2.61.895 4.775 2.682 6.506 1.784 1.73 4.02 2.6 6.706 2.6 2.697 0 4.946-.882 6.75-2.647s2.706-3.965 2.706-6.597c0-2.562-.9-4.713-2.705-6.46s-4.02-2.622-6.65-2.622zM197.316 51.945V27.738h7.665c2.31 0 4.15.623 5.523 1.868 1.37 1.246 2.058 2.92 2.058 5.02 0 1.405-.353 2.65-1.055 3.736-.703 1.084-1.67 1.87-2.89 2.36-1.228.49-2.98.734-5.264.734h-2.56V51.94h-3.48v.003l.006.002zm7.06-21.127h-3.582v7.562h3.79c1.403 0 2.49-.332 3.25-.994.764-.664 1.147-1.613 1.147-2.85 0-2.478-1.537-3.718-4.604-3.718z" fill="#FFF"/>
</svg>
