<svg xmlns="http://www.w3.org/2000/svg" width="184.44" height="88.672">
    <path d="M53.147 71.625c-.667.44-1.6.976-2.793 1.584-1.196.607-2.615 1.18-4.255 1.708-1.64.53-3.49.973-5.546 1.336-2.058.356-4.253.543-6.59.543-4.783 0-9.064-.82-12.844-2.463-3.783-1.64-6.98-3.853-9.593-6.63-2.613-2.784-4.616-6.036-6.004-9.763-1.393-3.724-2.086-7.644-2.086-11.76 0-4.558.834-8.77 2.502-12.635 1.666-3.865 3.932-7.2 6.797-10.01 2.863-2.806 6.2-4.99 10.01-6.548 3.808-1.557 7.88-2.335 12.22-2.335 1.667 0 3.348.126 5.045.376 1.696.25 3.295.57 4.797.96 1.5.39 2.82.834 3.96 1.333 1.14.5 1.96 1.03 2.46 1.586-.5.778-.89 1.418-1.167 1.918s-.57 1.016-.876 1.544c-.305.528-.64 1.125-1 1.792-.362.666-.877 1.584-1.543 2.752-.666-.444-1.473-.835-2.42-1.168-.944-.334-1.93-.598-2.96-.792-1.03-.194-2.072-.347-3.126-.46-1.057-.11-2.002-.167-2.837-.167-3.114 0-5.99.585-8.632 1.752-2.64 1.168-4.92 2.712-6.84 4.63-1.918 1.917-3.42 4.158-4.502 6.715-1.085 2.558-1.627 5.2-1.627 7.922 0 2.672.512 5.27 1.54 7.798 1.03 2.536 2.475 4.77 4.337 6.72 1.863 1.945 4.073 3.517 6.633 4.707 2.556 1.197 5.393 1.797 8.508 1.797 1.778 0 3.503-.18 5.17-.543 1.667-.363 3.142-.766 4.42-1.214 1.28-.44 2.323-.884 3.13-1.332.804-.442 1.237-.75 1.292-.918l4.417 9.265zM132.722 15.656c-2.002 5.283-4.088 10.747-6.257 16.39-2.168 5.643-4.323 11.232-6.464 16.763-2.142 5.534-4.198 10.858-6.172 15.976-1.974 5.118-3.74 9.787-5.296 14.01L94.854 44.93c-.225-.498-.364-.83-.42-1-.054-.164-.138-.5-.25-.997-.055.22-.097.443-.122.666-.03.222-.07.415-.126.582-.057.223-.14.444-.25.666-2.004 4.395-3.92 8.677-5.756 12.85-.78 1.774-1.6 3.627-2.46 5.543l-2.545 5.673c-.833 1.86-1.64 3.656-2.418 5.38-.78 1.726-1.474 3.28-2.084 4.67-4.004-10.618-8.037-21.17-12.095-31.65-4.06-10.482-8.093-21.034-12.095-31.655h11.593c2.504 7.062 4.907 13.708 7.215 19.935 2.31 6.227 4.102 11.76 5.383 16.6.11.44.22.945.332 1.5.11.56.222 1.057.334 1.504 0-.337.124-.82.374-1.46.25-.645.43-1.13.542-1.464.055-.277.25-.79.583-1.54.333-.755.72-1.63 1.168-2.63.444-1 .943-2.098 1.5-3.293.556-1.195 1.11-2.406 1.67-3.63 1.334-2.836 2.778-5.95 4.335-9.34-.78-2.338-1.5-4.56-2.17-6.675-.61-1.777-1.207-3.57-1.792-5.38-.583-1.805-1.013-3.182-1.29-4.127h9.842c2.39 6.173 4.557 11.818 6.504 16.93.834 2.17 1.668 4.326 2.503 6.466.832 2.14 1.584 4.115 2.25 5.92.668 1.813 1.238 3.354 1.71 4.633.47 1.277.793 2.14.96 2.586.223.5.36.986.417 1.46.055.472.14.954.252 1.46.108-.506.206-1.003.29-1.5.082-.505.18-.98.29-1.42.558-2.507 1.323-5.188 2.295-8.05.973-2.863 2.045-5.852 3.21-8.967 1.17-3.113 2.408-6.31 3.713-9.593 1.307-3.28 2.572-6.59 3.796-9.925l10.678-.002zM140.226 76.127V15.323h40.37v9.257h-30.192v16.35h26.856v9.51h-26.856v16.178h31.36v9.512h-41.538v-.003z" fill="#FFF"/>
</svg>
