<svg xmlns="http://www.w3.org/2000/svg" width="225.167" height="62.167">
    <path d="M11.33 20.105v15.902c0 2.807-.556 5.06-1.667 6.758-1.112 1.695-2.497 2.543-4.154 2.543-1.416 0-2.442-.27-3.08-.805-.636-.535-.964-1.44-.985-2.713.142-.547.688-.818 1.637-.818.445 0 .94.06 1.486.18.1 1.16.227 1.93.378 2.31.152.382.43.57.834.57.89 0 1.496-.58 1.82-1.74.323-1.157.485-2.978.485-5.46V16.5l-2.76-.302c-.08-.312-.08-.696 0-1.153 1.112.06 2.366.09 3.76.09 1.8 0 3.427-.03 4.883-.09.12.373.12.748 0 1.122l-2.517.394c-.08.77-.12 1.95-.12 3.545zM15.42 40.25V24.345c0-2.807.557-5.058 1.668-6.757 1.112-1.695 2.497-2.543 4.154-2.543 1.415 0 2.44.27 3.078.804.637.535.965 1.44.986 2.712-.142.547-.688.82-1.637.82-.446 0-.942-.06-1.487-.18-.1-1.162-.227-1.932-.378-2.313-.152-.38-.43-.57-.834-.57-.89 0-1.495.578-1.82 1.738-.322 1.16-.484 2.98-.484 5.46v20.333l2.76.304c.08.31.08.695 0 1.152-1.112-.06-2.366-.092-3.76-.092-1.8 0-3.427.03-4.883.092-.12-.373-.12-.748 0-1.123l2.517-.393c.08-.765.12-1.947.12-3.54z"/>
    <path fill="none" d="M29.87 29.715h181.297v35.762H29.87z"/>
    <path d="M43.736 43.02c.226.146.398.4.518.757-1.847 1.727-3.72 2.59-5.62 2.59-1.3 0-2.437-.236-3.406-.707-.97-.47-1.773-1.096-2.41-1.873-.64-.777-1.114-1.66-1.426-2.646-.312-.99-.468-2.006-.468-3.038 0-1.052.18-2.074.538-3.078.36-1.002.883-1.896 1.574-2.688.69-.792 1.544-1.423 2.56-1.902 1.016-.48 2.175-.718 3.477-.718 1.713 0 3.307.4 4.782 1.196v3.825c-.24.04-.452.062-.638.062-.2 0-.366-.022-.498-.063l-.64-3.327c-.81-.53-1.892-.797-3.247-.797-.836 0-1.59.188-2.26.567-.672.38-1.243.89-1.714 1.533-.473.646-.834 1.4-1.087 2.27-.252.87-.378 1.796-.378 2.78 0 1.05.123 2.018.37 2.908.245.892.593 1.66 1.045 2.312s1 1.16 1.644 1.525 1.365.547 2.162.547c.957 0 1.88-.186 2.77-.56.89-.37 1.673-.864 2.35-1.473zM53.897 29.71c1.3 0 2.47.234 3.506.7 1.036.464 1.873 1.084 2.51 1.86.638.778 1.126 1.642 1.464 2.59.34.952.508 1.944.508 2.98 0 2.394-.75 4.41-2.25 6.06s-3.415 2.474-5.74 2.474c-1.288 0-2.45-.232-3.486-.697-1.037-.465-1.874-1.086-2.51-1.863-.638-.775-1.126-1.637-1.465-2.58-.338-.94-.508-1.924-.508-2.947 0-1.527.335-2.94 1.006-4.244.67-1.3 1.62-2.348 2.85-3.138 1.228-.8 2.6-1.194 4.114-1.194zm-.02 15.56c1.25 0 2.308-.36 3.178-1.085.87-.723 1.494-1.637 1.873-2.738.378-1.104.567-2.332.567-3.686 0-1.288-.19-2.44-.567-3.456-.38-1.016-1-1.854-1.863-2.512-.863-.66-1.926-.985-3.188-.985-1.82 0-3.2.664-4.144 1.993-.943 1.328-1.415 2.988-1.415 4.98 0 1.366.186 2.6.558 3.694.372 1.096.99 2.002 1.853 2.72.862.72 1.912 1.077 3.147 1.077zM76.63 40.632v-7.2c0-1.046-.027-1.823-.08-2.327l-1.854-.238c-.08-.246-.08-.492 0-.737.836.04 1.646.06 2.43.06.864 0 1.668-.026 2.412-.08.053.3.053.553 0 .758l-1.813.198v14.902H76.67L67.882 34.09c-.412-.542-.896-1.253-1.454-2.128.065.607.1 1.345.1 2.205v8.54c0 1.048.025 1.82.08 2.325l1.852.236c.08.246.08.492 0 .736-1.142-.025-1.952-.04-2.43-.04-.785 0-1.588.02-2.412.06-.053-.298-.053-.552 0-.757l1.813-.195v-11.7c0-1.048-.026-1.823-.08-2.326l-1.653-.238c-.08-.232-.08-.465 0-.697h3.905l7.99 10.878c.105.146.22.318.348.518.126.2.266.44.418.722.153.274.276.487.37.638-.068-.8-.1-1.544-.1-2.234zM83.523 44.578c.77.53 1.853.793 3.248.793.944 0 1.65-.27 2.123-.81.47-.544.708-1.19.708-1.948 0-.396-.033-.73-.1-1.002-.066-.27-.208-.58-.428-.924-.22-.347-.567-.688-1.046-1.033-.478-.344-1.103-.71-1.873-1.092-.903-.452-1.634-.876-2.19-1.27-.56-.4-.978-.813-1.256-1.237-.28-.424-.465-.83-.558-1.215-.094-.385-.14-.863-.14-1.437 0-1.17.468-2.075 1.404-2.72.937-.644 2.042-.966 3.317-.966 1.582 0 3.11.4 4.584 1.196v3.825c-.452.08-.83.08-1.136 0l-.638-3.447c-.85-.465-1.8-.697-2.85-.697-.703 0-1.297.21-1.782.63-.485.416-.728 1.005-.728 1.76 0 .428.027.76.08.997.053.237.186.52.398.85.212.324.564.648 1.056.978.49.326 1.15.688 1.973 1.086 2.842 1.382 4.263 3.028 4.263 4.942 0 1.354-.518 2.446-1.554 3.285-1.036.838-2.39 1.256-4.064 1.256-1.66 0-3.188-.394-4.583-1.18v-3.82c.45-.08.83-.08 1.135 0l.638 3.205zM106.115 40.908v-9.92l-1.613-.2v-.738c.73.054 1.4.08 2.014.08.505 0 1.183-.02 2.03-.06v.717l-1.255.24c-.052.504-.08 1.28-.08 2.33v7.432c-.052 1.886-.497 3.286-1.333 4.202-.836.918-2.305 1.375-4.4 1.375-3.96 0-5.938-1.8-5.938-5.398v-9.98l-1.615-.2c-.053-.198-.053-.443 0-.736.73.054 1.64.08 2.73.08.968 0 1.887-.02 2.748-.06.08.24.08.478 0 .717l-1.653.24c-.053.505-.08 1.282-.08 2.33v7.61c0 1.487.345 2.55 1.038 3.18.69.63 1.832.942 3.426.942 1.502 0 2.54-.325 3.12-.983.572-.66.86-1.728.86-3.202zM113.268 45.968l-2.85.06c-.08-.23-.08-.464 0-.696l1.652-.22c.054-.68.08-1.462.08-2.355v-11.77l-1.612-.2c-.055-.2-.055-.444 0-.737.73.054 1.64.08 2.73.08.97 0 1.885-.02 2.748-.06.08.24.08.478 0 .717l-1.653.24c-.054.505-.078 1.283-.078 2.333v11.61h6.573l.937-3.624c.2-.054.444-.054.738 0l-.02 4.62h-9.244v.002zM121.636 30.11h13.766l.02 4.622c-.292.053-.538.053-.736 0l-.937-3.625h-4.147v13.965l2.012.2c.055.204.055.458 0 .757-.836-.042-1.846-.062-3.025-.062-.916 0-1.936.014-3.05.04-.08-.245-.08-.49 0-.737l1.855-.237c.053-.506.08-1.28.08-2.332V31.107h-4.188l-.937 3.625c-.2.055-.445.055-.737 0l.023-4.62zM140.742 33.353v11.72l1.613.198c.053.206.053.46 0 .76-.836-.042-1.746-.062-2.73-.062-.72 0-1.636.014-2.75.04-.08-.245-.08-.49 0-.737l1.652-.237c.056-.504.08-1.28.08-2.328v-11.72l-1.612-.198c-.056-.2-.056-.444 0-.737.73.054 1.64.08 2.73.08.968 0 1.884-.02 2.747-.06.078.24.078.478 0 .717l-1.652.24c-.052.503-.078 1.28-.078 2.326zM157.296 40.632v-7.2c0-1.046-.025-1.823-.078-2.327l-1.854-.238c-.08-.246-.08-.492 0-.737.837.04 1.646.06 2.433.06.86 0 1.666-.026 2.41-.08.053.3.053.553 0 .758l-1.812.198v14.902h-1.058L148.55 34.09c-.41-.542-.896-1.253-1.452-2.128.065.607.1 1.345.1 2.205v8.54c0 1.048.026 1.82.08 2.325l1.853.236c.08.246.08.492 0 .736-1.142-.025-1.95-.04-2.43-.04-.782 0-1.588.02-2.41.06-.055-.298-.055-.552 0-.757l1.813-.195v-11.7c0-1.048-.025-1.823-.08-2.326l-1.65-.238c-.08-.232-.08-.465 0-.697h3.902l7.987 10.878c.104.146.224.318.35.518.126.2.27.44.42.722.15.274.274.487.368.638-.068-.8-.104-1.544-.104-2.234zM174.47 46.328l-.518-1.635c-1.54 1.117-3.027 1.674-4.466 1.674-1.3 0-2.438-.236-3.403-.707-.973-.47-1.773-1.096-2.41-1.873-.64-.777-1.113-1.66-1.426-2.646-.312-.99-.47-2.006-.47-3.038 0-1.052.185-2.074.55-3.078.362-1.002.9-1.896 1.61-2.683.71-.78 1.578-1.416 2.605-1.9 1.02-.483 2.188-.727 3.506-.727 1.832 0 3.52.4 5.06 1.196v3.824c-.237.04-.45.062-.638.062-.198 0-.364-.02-.497-.062l-.638-3.327c-.853-.53-2.025-.797-3.526-.797-.838 0-1.596.188-2.272.567-.68.38-1.266.89-1.756 1.538-.49.645-.87 1.397-1.137 2.27-.268.87-.396 1.796-.396 2.78 0 1.05.122 2.02.368 2.907.243.89.594 1.66 1.047 2.312.448.65.998 1.16 1.643 1.524.645.365 1.365.547 2.162.547 1.29 0 2.557-.352 3.806-1.057v-4.242l-1.614-.198c-.024-.065-.04-.175-.04-.32v-.198c0-.064.016-.14.04-.22.373.026.78.048 1.23.062.442.016.942.02 1.504.02.97 0 1.885-.02 2.75-.06.04.12.06.24.06.358s-.02.237-.06.358l-1.653.237c-.025.252-.048.57-.062.957-.013.385-.02.844-.02 1.375v2.012l-.198 2.19c-.053.023-.104.04-.16.04h-.378c-.07-.005-.135-.017-.204-.042z"/>
</svg>
