<svg xmlns="http://www.w3.org/2000/svg" width="600" height="400" viewBox="0 0 600 400">
    <path class="uk-text-muted" fill="none" stroke="#cacbcd" stroke-miterlimit="10" stroke-width="0.3" d="M12,41H560M12,82H560M12,123H560M12,164H560M12,205H560M12,246H560M12,287H560M12,328H560M12,369H560"/>
    <path class="uk-svg-muted-background" fill="#f2f2f2" d="M73,199h30V369H73Zm82-43h30V369H155Zm81-19h30V369H236Zm164,13h30V369H400Zm80,7h30V369H480Zm-162-2h30V369H318Z"/>
    <path fill="#1e3684" d="M107,233h30V369H107Zm82-8h30V369H189Zm81-25h30V369H270Zm164-85h30V369H434Zm80-44h30V369H514ZM352,157h30V369H352ZM28,216H58V369H28Z"/>
    <path class="uk-text-emphasis" fill="#2d2e33" d="M97.825,385.608a2.44621,2.44621,0,0,1-1.837.678,2.86439,2.86439,0,0,1-1.32-.312,3.20567,3.20567,0,0,1-1.068-.89l.564-.887a2.86484,2.86484,0,0,0,.87.714,2.0345,2.0345,0,0,0,.94.247,1.26589,1.26589,0,0,0,.997-.39,1.61243,1.61243,0,0,0,.348-1.11v-4.764H94.355v-1.057h4.13v5.856a2.63029,2.63029,0,0,1-.66,1.916Zm8.867.63-.888-2.04h-4.43l-.875,2.04H99.287l3.732-8.4h1.2l3.72,8.4Zm-4.86-3.084h3.528l-1.776-4.08-1.753,4.08Zm13.308-5.316h1.14v8.4h-1.164l-4.8-6.504v6.504h-1.15v-8.4h1.163l4.812,6.517v-6.517Zm61.16,0h5.472l-.012,1.044h-4.308v2.76h3.876v1.045h-3.876v3.552H176.3v-8.401Zm6.816,0h5.832v1.044h-4.68v2.593h4.188v1.044h-4.188v2.675h4.824v1.044h-5.976v-8.4Zm13.445.558a1.82546,1.82546,0,0,1,.738,1.542,1.85924,1.85924,0,0,1-.408,1.218,1.9845,1.9845,0,0,1-1.116.666,2.18677,2.18677,0,0,1,1.373.702,2.07862,2.07862,0,0,1,.498,1.422,1.98646,1.98646,0,0,1-.81,1.686,3.66069,3.66069,0,0,1-2.237.606h-3.648v-8.4h3.588a3.28076,3.28076,0,0,1,2.022.558Zm-.876,2.676a1.12313,1.12313,0,0,0,.425-.942,1.092,1.092,0,0,0-.426-.924,1.91214,1.91214,0,0,0-1.207-.312h-2.376v2.508h2.376a1.93133,1.93133,0,0,0,1.206-.33Zm.257,3.756a1.177,1.177,0,0,0,.528-1.025,1.13863,1.13863,0,0,0-.528-.996,2.57242,2.57242,0,0,0-1.464-.36h-2.376v2.736h2.376a2.48151,2.48151,0,0,0,1.464-.355Zm58.592-6.99h1.368l3.072,5.904,3.048-5.904h1.38v8.4h-1.08l-.012-6.708-2.988,5.82h-.708l-3.012-5.82v6.708h-1.068v-8.4Zm17.508,8.4-.888-2.04h-4.428l-.876,2.04h-1.212l3.732-8.4h1.2l3.72,8.4Zm-4.86-3.084h3.528l-1.776-4.08Zm12.756,3.084-1.668-2.64c-.192.016-.348.023-.468.023h-2.136v2.617h-1.152v-8.4h3.288a3.70447,3.70447,0,0,1,2.466.738,2.59468,2.59468,0,0,1,.87,2.094,2.97772,2.97772,0,0,1-.474,1.716,2.654,2.654,0,0,1-1.362,1.008l1.956,2.844Zm-2.137-3.66a2.54828,2.54828,0,0,0,1.657-.474,1.70557,1.70557,0,0,0,.576-1.398,1.63532,1.63532,0,0,0-.576-1.36,2.58018,2.58018,0,0,0-1.656-.464h-2.135v3.696h2.136Zm67.204,3.66-.89-2.04h-4.427l-.876,2.04H337.6l3.732-8.4h1.2l3.72,8.4h-1.247Zm-4.86-3.084h3.528l-1.775-4.08-1.752,4.08Zm13.002-4.572a2.62211,2.62211,0,0,1,.858,2.088,2.78268,2.78268,0,0,1-.865,2.18,3.50835,3.50835,0,0,1-2.424.772h-2.088v2.616h-1.15v-8.4h3.238a3.58886,3.58886,0,0,1,2.43.744Zm-.822,3.522a1.70557,1.70557,0,0,0,.576-1.398,1.636,1.636,0,0,0-.577-1.36,2.581,2.581,0,0,0-1.655-.464l-2.04.013v3.684h2.04a2.55966,2.55966,0,0,0,1.655-.476Zm8.627,4.134-1.667-2.64c-.19.016-.348.023-.47.023h-2.134v2.617h-1.153v-8.4h3.287a3.70726,3.70726,0,0,1,2.467.738,2.59468,2.59468,0,0,1,.87,2.094,2.97757,2.97757,0,0,1-.473,1.716,2.65249,2.65249,0,0,1-1.363,1.008l1.957,2.844h-1.321Zm-2.136-3.66a2.545,2.545,0,0,0,1.656-.474,1.70257,1.70257,0,0,0,.576-1.398,1.62982,1.62982,0,0,0-.576-1.36,2.58018,2.58018,0,0,0-1.656-.464h-2.135v3.696h2.134ZM419,377.838h1.368l3.072,5.904,3.047-5.904h1.38v8.4h-1.08l-.01-6.708-2.99,5.82h-.708l-3.012-5.82v6.708H419v-8.4Zm17.508,8.4-.888-2.04h-4.428l-.877,2.04h-1.21l3.73-8.4h1.2l3.72,8.4Zm-4.86-3.084h3.528l-1.776-4.08Zm13.091-5.316-3.144,5.52v2.88h-1.15v-2.83l-3.192-5.57h1.176l2.593,4.285,2.543-4.284h1.175Zm59.786,7.77a2.44621,2.44621,0,0,1-1.837.678,2.86186,2.86186,0,0,1-1.32-.312,3.20488,3.20488,0,0,1-1.068-.89l.564-.887a2.87583,2.87583,0,0,0,.87.714,2.0313,2.0313,0,0,0,.94.247,1.2659,1.2659,0,0,0,.997-.39,1.62231,1.62231,0,0,0,.348-1.11v-4.764h-2.96408v-1.057h4.13v5.856a2.63868,2.63868,0,0,1-.66,1.916Zm4.48-.984a2.369,2.369,0,0,0,1.77.654,2.32982,2.32982,0,0,0,1.753-.654,2.49755,2.49755,0,0,0,.637-1.817v-4.97h1.15v4.97a3.47274,3.47274,0,0,1-.94,2.58,4.09991,4.09991,0,0,1-5.215,0,3.46145,3.46145,0,0,1-.948-2.58v-4.97h1.152v4.97a2.48775,2.48775,0,0,0,.64,1.817Zm13.507-6.786h1.14v8.4h-1.164l-4.8-6.504v6.504h-1.152v-8.4h1.165l4.812,6.517v-6.517Z"/>
</svg>
