<svg xmlns="http://www.w3.org/2000/svg" width="247.508" height="32">
    <path d="M9.905 10.103h2.164l4.86 9.34 4.82-9.34h2.184v13.29h-1.71l-.017-10.614-4.728 9.207h-1.12l-4.766-9.208v10.613h-1.69v-13.29zM37.442 10.88c1.07.596 1.914 1.408 2.535 2.44.62 1.03.93 2.166.93 3.407 0 1.24-.31 2.383-.93 3.428-.62 1.045-1.466 1.865-2.535 2.47-1.07.603-2.244.9-3.522.9-1.28 0-2.452-.302-3.52-.9-1.07-.604-1.916-1.425-2.536-2.47-.62-1.045-.93-2.188-.93-3.428 0-1.24.31-2.375.93-3.408.62-1.033 1.46-1.845 2.525-2.44 1.062-.595 2.24-.892 3.53-.892 1.278 0 2.452.298 3.522.892zm-6.076 1.425c-.79.455-1.42 1.072-1.89 1.85-.467.78-.7 1.637-.7 2.573 0 .936.233 1.797.7 2.582.47.782 1.1 1.406 1.89 1.87s1.648.69 2.572.69 1.775-.23 2.554-.69c.78-.464 1.398-1.088 1.86-1.87.462-.785.693-1.646.693-2.582 0-.938-.23-1.794-.693-2.572-.46-.778-1.08-1.396-1.86-1.85-.778-.457-1.63-.685-2.554-.685s-1.78.23-2.572.685zM52.486 23.393l-2.64-4.178c-.303.025-.55.037-.74.037h-3.38v4.14h-1.82v-13.29h5.2c1.683 0 2.984.39 3.9 1.168.92.78 1.378 1.882 1.378 3.313 0 1.076-.25 1.98-.75 2.714-.5.735-1.218 1.266-2.155 1.596l3.093 4.5h-2.087zm-3.38-5.793c1.14 0 2.013-.248 2.62-.748.608-.5.912-1.236.912-2.21 0-.95-.304-1.667-.91-2.155-.61-.486-1.482-.73-2.62-.73h-3.38V17.6h3.38zM67.2 16.898h1.612v4.877c-.67.533-1.455.957-2.354 1.272s-1.792.476-2.676.476c-1.28 0-2.45-.3-3.513-.9-1.064-.604-1.903-1.425-2.516-2.47-.614-1.044-.92-2.187-.92-3.427 0-1.24.31-2.375.93-3.41.62-1.03 1.467-1.843 2.543-2.438 1.076-.595 2.265-.892 3.57-.892.922 0 1.824.165 2.705.493.878.33 1.64.778 2.287 1.347l-1.045 1.33c-.532-.494-1.142-.877-1.83-1.15-.69-.27-1.397-.408-2.118-.408-.95 0-1.823.227-2.62.683-.797.456-1.427 1.076-1.89 1.86-.46.786-.69 1.646-.69 2.583 0 .938.232 1.8.7 2.592.47.79 1.1 1.418 1.9 1.88.796.463 1.668.692 2.618.692.557 0 1.124-.094 1.7-.274.576-.185 1.11-.44 1.604-.77V16.9zM82.517 23.393l-1.404-3.23h-7.005l-1.386 3.23h-1.917l5.904-13.29h1.897l5.885 13.29h-1.975zm-7.687-4.88h5.58l-2.808-6.455-2.772 6.454zM96.262 10.103h1.804v13.29h-1.842l-7.592-10.29v10.29H86.81v-13.29h1.84l7.612 10.308V10.104zM115.474 12.048c-.67-.297-1.36-.447-2.07-.447-.935 0-1.795.23-2.58.685-.786.456-1.407 1.073-1.86 1.85-.457.78-.683 1.637-.683 2.574 0 .923.228 1.776.684 2.56.454.786 1.075 1.404 1.86 1.86.784.455 1.645.684 2.58.684.698 0 1.38-.144 2.052-.426.67-.285 1.267-.677 1.785-1.168l1.1 1.194c-.67.657-1.448 1.173-2.334 1.547-.885.373-1.783.563-2.694.563-1.267 0-2.424-.3-3.475-.9-1.05-.604-1.88-1.422-2.486-2.46-.607-1.037-.91-2.183-.91-3.437 0-1.24.306-2.375.92-3.41.612-1.03 1.453-1.843 2.516-2.438 1.063-.595 2.233-.892 3.512-.892.922 0 1.82.174 2.687.522.865.348 1.615.84 2.25 1.472l-1.083 1.31c-.508-.53-1.097-.944-1.768-1.242zM130.29 10.88c1.07.596 1.916 1.408 2.537 2.44.616 1.03.93 2.166.93 3.407 0 1.24-.313 2.383-.93 3.428-.62 1.045-1.468 1.865-2.536 2.47-1.07.603-2.24.9-3.52.9-1.277 0-2.453-.302-3.52-.9-1.07-.604-1.915-1.425-2.535-2.47-.62-1.045-.93-2.188-.93-3.428 0-1.24.31-2.375.93-3.408.62-1.033 1.462-1.845 2.524-2.44s2.242-.892 3.533-.892c1.276 0 2.448.298 3.518.892zm-6.075 1.425c-.79.455-1.42 1.072-1.888 1.85-.468.78-.7 1.637-.7 2.573 0 .936.232 1.797.7 2.582.468.782 1.097 1.406 1.888 1.87s1.65.69 2.574.69 1.772-.23 2.552-.69c.777-.464 1.398-1.088 1.86-1.87.463-.785.692-1.646.692-2.582 0-.938-.23-1.794-.693-2.572-.46-.778-1.08-1.396-1.858-1.85-.78-.457-1.63-.685-2.553-.685s-1.784.23-2.575.685zM146.21 10.103h1.804v13.29h-1.842l-7.594-10.29v10.29h-1.82v-13.29h1.84l7.61 10.308V10.104zM158.046 11.99c-.665-.195-1.274-.293-1.832-.293-.772 0-1.39.15-1.853.446-.46.297-.69.706-.69 1.225 0 .468.14.85.418 1.15.278.296.62.53 1.025.7.404.172.968.37 1.688.6.897.278 1.63.543 2.185.796.558.254 1.033.63 1.426 1.13s.588 1.16.588 1.982c0 .76-.205 1.424-.615 1.994-.41.568-.987 1.01-1.73 1.317-.737.312-1.59.466-2.552.466-.974 0-1.924-.188-2.847-.568-.925-.38-1.723-.887-2.393-1.52l.814-1.576c.635.62 1.346 1.1 2.137 1.435s1.56.502 2.307.502c.888 0 1.585-.174 2.1-.52.513-.348.77-.82.77-1.415 0-.468-.14-.854-.42-1.158-.274-.304-.628-.543-1.052-.72-.425-.178-.998-.375-1.72-.59-.885-.267-1.604-.524-2.163-.776-.558-.255-1.03-.626-1.413-1.122-.388-.494-.582-1.145-.582-1.956 0-.708.197-1.335.59-1.88.395-.543.942-.96 1.65-1.252.71-.29 1.532-.437 2.47-.437.796 0 1.577.12 2.345.353.766.234 1.445.547 2.04.94l-.76 1.632c-.62-.394-1.263-.688-1.927-.884zM166.837 20.838c.677.69 1.608 1.034 2.8 1.034 1.178 0 2.103-.345 2.77-1.034.672-.69 1.01-1.646 1.01-2.876v-7.86h1.82v7.86c0 1.733-.496 3.095-1.49 4.08-.994.987-2.363 1.48-4.108 1.48-1.76 0-3.142-.493-4.14-1.48-1.002-.985-1.502-2.347-1.502-4.08v-7.86h1.822v7.86c0 1.227.338 2.186 1.017 2.876zM179.128 10.103h1.823V21.74h5.81v1.65h-7.632V10.103zM187.746 10.103h10.385v1.67h-4.29v11.62h-1.822v-11.62h-4.27l-.002-1.67zM200.6 10.103h1.82v13.29h-1.82v-13.29zM216.05 10.103h1.804v13.29h-1.842l-7.592-10.29v10.29h-1.822v-13.29h1.842l7.61 10.308V10.104zM231.236 16.898h1.615v4.877c-.67.533-1.454.957-2.353 1.272s-1.793.476-2.677.476c-1.278 0-2.45-.3-3.514-.9-1.062-.604-1.902-1.425-2.517-2.47-.615-1.044-.922-2.187-.922-3.427 0-1.24.31-2.375.93-3.41.62-1.03 1.47-1.843 2.544-2.438 1.076-.595 2.267-.892 3.57-.892.922 0 1.823.165 2.705.493.88.33 1.64.778 2.284 1.347l-1.042 1.33c-.53-.494-1.142-.877-1.832-1.15-.688-.27-1.396-.408-2.115-.408-.948 0-1.822.227-2.62.683s-1.424 1.076-1.89 1.86c-.46.786-.69 1.646-.69 2.583 0 .938.232 1.8.7 2.592.47.79 1.105 1.418 1.9 1.88.796.463 1.67.692 2.618.692.557 0 1.123-.094 1.7-.274.575-.185 1.11-.44 1.603-.77V16.9h.006z" fill="#FFF"/>
</svg>
