<svg xmlns="http://www.w3.org/2000/svg" width="54.167" height="32">
    <path fill="#2D2E33" d="M5.905 5.938H9.24l7.493 14.397 7.433-14.397h3.365v20.484h-2.633l-.028-16.36-7.29 14.192h-1.726L8.51 10.064v16.36H5.904V5.937z"/>
    <path fill="#B49C86" d="M44.716 9.108c-1.033-.458-2.096-.688-3.19-.688-1.44 0-2.768.352-3.978 1.055-1.21.703-2.167 1.653-2.866 2.853-.705 1.2-1.053 2.522-1.053 3.966 0 1.424.35 2.74 1.052 3.95.7 1.21 1.657 2.165 2.866 2.866 1.21.703 2.537 1.054 3.98 1.054 1.073 0 2.126-.22 3.16-.656 1.034-.44 1.954-1.042 2.753-1.8l1.696 1.842c-1.033 1.014-2.234 1.808-3.602 2.385-1.363.573-2.746.864-4.15.864-1.953 0-3.736-.465-5.357-1.39-1.618-.93-2.897-2.19-3.832-3.79-.937-1.6-1.404-3.366-1.404-5.3 0-1.91.474-3.66 1.42-5.25.943-1.59 2.24-2.843 3.878-3.76 1.64-.918 3.44-1.376 5.414-1.376 1.42 0 2.803.27 4.143.805 1.332.536 2.488 1.293 3.465 2.268l-1.668 2.02c-.784-.822-1.692-1.46-2.726-1.92z"/>
</svg>
